<svg width="272" height="272" viewBox="0 0 272 272" fill="none" xmlns="http://www.w3.org/2000/svg">
<g clip-path="url(#clip0_2_63)">
<path d="M47.2471 48.5675L8.98734 86.6642L8.97342 139.92L56.2635 187.863L56.2625 191.696C56.2607 198.384 58.7879 202.461 64.5776 205.477C68.1656 207.352 74.9347 207.513 78.1158 205.881C83.4177 203.107 86.4366 198.05 86.4382 191.933C86.4394 187.447 85.2984 184.43 82.5262 181.495C79.1833 177.989 76.4107 176.848 71.1096 176.849L66.2162 176.85L45.0171 155.651C30.504 141.057 23.7367 133.718 23.4109 132.169C22.6778 128.744 22.7682 94.9794 23.4209 93.919C23.8288 93.4295 39.0839 77.7667 57.5205 59.0855L90.8858 25.1495L104.832 25.1458L119.516 10.4619L85.4254 10.4708L47.2471 48.5675ZM75.0213 188.266C76.9781 190.223 77.0592 192.18 75.3458 194.627C72.8166 198.298 66.048 196.098 66.0492 191.531C66.0504 187.208 71.8414 185.086 75.0213 188.266Z" fill="white"/>
<path d="M90.3085 49.6165L85.9861 49.6176C81.0111 49.6189 77.8302 50.68 75.2197 53.1274C72.9356 55.2484 70.5693 59.6531 69.8344 63.2417C68.4463 69.6035 73.9084 77.9208 80.5955 79.7133C91.2786 82.6465 100.823 75.2224 100.581 64.2939L100.419 59.8084L117.713 42.5139L134.926 25.138L165.02 25.1301L186.219 46.3291L181.814 51.0606C174.472 58.9734 175.532 59.0547 165.993 49.6782L157.676 41.4432L141.691 41.4474L130.107 53.0315C123.826 59.476 107.347 76.1178 93.5602 90.0675L68.4343 115.438L67.9425 124.98C67.6964 130.2 67.206 134.441 66.8797 134.441C66.6351 134.441 63.129 131.261 59.2153 127.348L52.1218 120.336L52.3678 114.953C52.6139 109.652 52.6139 109.57 55.0607 109.325C60.8513 108.834 62.9719 108.099 65.7455 105.734C77.5738 95.2913 67.4661 75.1496 52.2957 78.9867C44.058 81.0277 38.2649 90.816 40.8728 98.0738C41.7693 100.602 41.6876 101.091 39.7296 103.457C37.6085 105.904 37.5269 106.393 37.5244 115.935L37.4402 125.885L77.5555 165.511C110.088 197.717 117.508 205.382 117.099 206.687C116.855 207.584 114.978 209.949 112.939 211.907C107.636 217.047 105.924 216.803 98.1776 209.791L91.9808 204.165L82.11 213.873L89.9374 221.374L97.7648 228.957L106.573 229.199L115.381 229.523L144.341 200.318C160.249 184.247 173.709 171.032 174.198 170.95C175.095 170.705 207.954 202.422 207.954 203.482C207.954 203.727 198.491 213.516 186.988 225.1L166.023 246.147L151.261 246.151L144.49 252.922C140.819 256.674 137.801 259.937 137.801 260.264C137.801 260.59 145.467 260.833 154.846 260.83L171.891 260.826L199.464 233.089C214.638 217.834 227.364 204.782 227.772 204.129C228.425 202.906 217.418 191.409 184.07 158.877L174.448 149.582L151.444 172.587L128.439 195.511L82.3714 149.933L82.3786 122.204L105.384 98.954L128.388 75.6229L151.463 98.6973L174.619 121.772L207.25 88.896C225.197 70.8674 240.126 56.1018 240.452 56.1017C240.778 56.1016 243.387 58.7107 246.322 61.8906C249.257 65.0706 252.6 68.4135 253.742 69.2288L255.862 70.6962L257.332 64.416C258.148 60.9904 260.189 52.1003 261.986 44.6782C265.17 31.3837 268.273 16.7028 268.028 16.3766C267.784 16.132 215.013 29.2764 214.605 29.6843C214.361 29.929 217.622 33.5166 221.862 37.7564L229.444 45.3392L174.216 101.056L156.849 83.6896C147.31 74.15 139.483 65.7517 139.483 65.0177C139.483 63.1419 148.049 55.3103 150.088 55.3098C151.311 55.3095 155.551 58.9784 163.134 66.7242C169.249 73.0025 174.63 78.1391 175.038 78.139C176.098 78.1387 206.363 47.7103 206.364 46.7317C206.364 46.2423 198.374 37.9257 188.589 28.1415L170.896 10.4485L129.303 10.4593L90.3085 49.6165ZM89.5714 61.6055C93.0771 66.2532 86.7957 72.3716 82.0663 68.9475C79.8647 67.3985 80.1106 62.7497 82.3947 60.8733C84.5971 59.0785 87.8593 59.4854 89.5714 61.6055ZM59.1433 90.8105C60.2848 91.8705 61.1815 93.5013 61.1813 94.3984C61.1808 96.1111 57.5915 99.3743 55.7157 99.3748C54.1661 99.3752 50.5786 95.7061 50.5791 94.075C50.5795 92.3623 54.1689 88.7729 55.8816 88.7725C56.6156 88.7723 58.0834 89.669 59.1433 90.8105Z" fill="white"/>
<path d="M8.96174 184.613L85.1968 260.848L127.606 260.837L165.621 222.17L170.759 222.087C175.245 222.086 176.468 221.759 179.487 219.556C184.136 216.211 185.931 212.622 185.933 206.995C185.934 201.612 184.141 197.861 179.901 194.437C177.455 192.399 175.987 191.91 171.828 191.666C167.342 191.423 166.363 191.667 163.019 193.789C158.288 196.889 155.514 202.028 155.838 207.411L156.082 211.162L121.085 246.159L91.7251 246.166L57.6435 212.574L23.6433 178.9L23.647 165.036L8.97069 150.36L8.96174 184.613ZM174.923 203.98C176.636 206.345 176.472 208.302 174.432 210.342C172.311 212.463 169.049 212.137 167.093 209.446C165.218 206.919 165.871 204.064 168.644 202.595C171.173 201.29 173.374 201.779 174.923 203.98Z" fill="white"/>
</g>
<defs>
<clipPath id="clip0_2_63">
<rect width="272" height="272" fill="white"/>
</clipPath>
</defs>
</svg>
